<?xml version="1.0" encoding="UTF-8"?>
<svg version="1.1" viewBox="0 0 1300 900" width="1280" height="1280" xmlns="http://www.w3.org/2000/svg">
<path transform="translate(0)" d="m0 0h1300v900h-1300z" fill="#fff"/>
<path transform="translate(639,334)" d="m0 0h20l15 2 14 5 11 8 6 9 3 9v17l-4 10-6 8-8 6-11 5-7 1v2l9 1 15 5 9 6 5 4 7 11 3 13v9l-3 13-6 10-7 7-10 6-16 5-7 1h-45l-54-1-7-3-3-4v-8l5-5 9-6 2-16 1-32v-32l-1-26-2-13-11-7-3-4v-8l5-5 7-2h37z" fill="#FE3131"/>
<path transform="translate(361,334)" d="m0 0h19l12 2 5 3 10 19 13 29 13 28 9 17h4l6-10 12-25 17-39 7-13 4-5 7-4 10-2h18l13 2 7 4 2 5-1 6-7 6-6 2-2 10-1 13v35l1 33 2 27 1 5 5 2 7 4 2 4v6l-5 6-6 2-7 1h-40l-11-2-6-4-1-2v-8l7-6 7-4 3-7 1-13v-25l-1-30-1-12-19 43-12 28-11 23-7 10-2 2-5-1-6-7-10-17-11-22-13-28-13-29-1 9v70l3 7 10 6 2 3v8l-5 5-10 3h-27l-9-2-5-3-2-3v-7l5-6 9-5 2-11 2-26 1-20v-56l-3-8-9-5-4-4-1-7 3-5 10-4z" fill="#FE3131"/>
<path transform="translate(228,333)" d="m0 0h16l8 4 6 9 10 21 19 47 22 56 6 9 7 4 8 4 3 4v7l-5 5-9 3-8 1h-38l-12-3-6-5v-7l4-5 7-4-1-9-6-12-3-2-6-1h-42l-7 2-5 12v8l13 8 2 3v7l-5 5-7 2-10 1h-21l-10-2-6-3-3-4 1-7 6-5 10-5 6-9 8-17 18-45 12-31 8-25 4-16 4-4z" fill="#FE3131"/>
<path transform="translate(855,412)" d="m0 0 9 1 2 1-1 7-6 19h10v6l-1 2h-12l-2 10-3 14v8l3 3 6-1 7-5 6-10 5-11 4-13-2-4v-6l4-4 7 1 2 10 10 9 2 3v8l-7 10-2 5v6l5 2 7-3 5-4 8-14 8-11 8-6 10-4h12l11 4 3 3-1 4-3 3-10-4h-11l-9 6-7 14v12l7-2 6-7 7-15 3-5 8 1 2 4-4 16v7l6-1 8-9 4-9 6-21 2-1 9 1 1 1v7l11-8 3-1h7l4 2 2 3v12l-5 18v7l6-2 7-9 10-19 7-9 8-7 2-1h6l3 2v12l5 18v11l8-4 6-9 7-24 2-1h6l4 3 1 3 8-5 9-1 7 3 3 4 1 4v11l-4 12-2 4 9-3 5-6 8-16 5-6 8-5 7-2h9l8 4 4 6 1 4v8l-4 13-1 2 6-1 5-4 8-16 4-12-2-7 1-6 3-3h6l2 2 1 8 11 11 2 4-1 6-6 9-3 7 1 6 4 1 7-3 6-5 5-8 4-17 1-2h-4l-1-4 2-4 5-1 9-26 2-1 9 1 2 4-8 23h10l1 5-2 3-11 1-5 19v15l8-1 6-4 7-9 2-4 4 1 1 2-6 11-8 9-8 4h-10l-6-3-3-5-2-4-8 8-9 4h-10l-6-3-3-5v-10l7-14 2-3v-5l-3-4-5 12-8 16-8 7-6 2h-8l-10 6-3 1h-13l-6-3-4-5-1-6-9 6-9 1-4 1-8 5-3 1h-9l-9-4-1 9-6 25-2 3h-10l-1-1 1-9 8-34-5 3-9 2-6 5-3 1h-12l-6-4-2-4v-7l2-2h5l2 8h6l2-1v-7l2-2v-7l-5-19-7 9-12 22-9 10-4 3-3 1h-9l-5-4v-11l4-17 1-9-7 2-8 7-4 11-5 19-4 2h-6l-3-2v-6l-8 6-9 2-5-3-3-8-8 9-5 2h-9l-6-4-3-7-7 7-9 4h-11l-6-4-2-3v-12l6-12 3-4-1-6-3-3-6 16-8 16-5 6-8 5-3 1h-10l-6-4-3-5v-17l4-18-4-1 1-7h6l2-9 6-17z" fill="#FE3131"/>
<path transform="translate(98,334)" d="m0 0h27l16 2 6 4 2 2v9l-7 6-6 3-2 8-1 12-1 86-4 16-4 8-9 10-10 6-15 4-18 1-18-2-15-5-10-7-7-8-4-10v-17l4-8 5-5 4-3 7-2h10l9 4 6 8 1 4v9l-1 13 4 5 2 1h11l6-4 4-9 2-22v-37l-1-32-2-21-5-5-8-5-2-3v-7l4-5 9-3z" fill="#FE3131"/>
<path transform="translate(753,334)" d="m0 0h26l16 2 7 4 2 5-1 6-7 6-6 3-2 7-1 11v82l2 19 4 4 8 5 3 6-2 7-6 4-11 2h-39l-12-3-5-4-1-2v-6l5-6 9-5 2-14 1-21v-58l-1-17-2-10-8-5-5-5-1-2v-6l4-5 10-3z" fill="#FE3131"/>
<path transform="translate(622,430)" d="m0 0h24l12 2 10 4 7 8 2 5 1 12-2 9-6 8-6 4-10 3-15 1-11-2-5-4-2-8v-41z" fill="#fff"/>
<path transform="translate(633,356)" d="m0 0 16 1 9 3 7 6 3 6 1 4v11l-3 8-7 6-13 4h-25v-33l1-9 4-5z" fill="#fff"/>
<path transform="translate(339,536)" d="m0 0h21l6 3 3 5-1 7-5 5 5 5 2 7 6 1h2l3-9 6-15 3-9h6l7 14 7 17 4 3-1 4h-15l-1-4 2-2-1-3-3-1h-7l-3 1-1 4 3 1-1 4h-13l-8 1-4-2-5-12v-2l-7-1 1 11 3 1-1 4h-14l-2-1 2-4 1-1v-26l-3-2 1-3z" fill="#0A0101"/>
<path transform="translate(28,536)" d="m0 0h21l6 3 3 2 2-5h32l2 5v7h-4l-3-5-6-1v27l3 1-1 4h-14l-1-4 3-1v-27l-6 1-3 5h-5l-1 6-6 4h-12l1 10 3 2-1 4h-14l-2-1 2-4 1-1v-26l-3-2 1-3z" fill="#070101"/>
<path transform="translate(787,536)" d="m0 0h11l8 4 5 7 1 3v12l-5 8-6 4-3 1h-10l-8-4-5-6-2-6v-8l4-9 7-5z" fill="#0A0202"/>
<path transform="translate(539,536)" d="m0 0h10l8 4 4 5 2 4 1 8-2 8-6 7-7 3h-10l-8-4-4-5-2-4-1-8 2-8 6-7z" fill="#080101"/>
<path transform="translate(232,536)" d="m0 0h21l6 3 2 2v8l-4 4h-2v2l5 1 4 5v6l-2 4-6 3h-26v-4l2-2v-26l-3-2 1-3z" fill="#080101"/>
<path transform="translate(183,536)" d="m0 0h8l4 4 7 16 2 1 7-16 5-5h7l3 1-1 4-2 6 1 21 3 4-2 2h-14l-1-4 3-2v-17l-9 20-3 2-6-10-5-11v16l3 4-2 2h-10l-1-4 3-1v-27l-3-2 1-3z" fill="#080101"/>
<path transform="translate(230,391)" d="m0 0 4 2 8 18 8 23v2h-39l7-20 8-18z" fill="#fff"/>
<path transform="translate(569,536)" d="m0 0h20l7 3 2 3v9l-4 4h-2v2l4 2 4 9 4 4-1 2-8 1-5-3-5-12-6-2 1 10 3 4-2 2h-14l-1-4 3-1v-26l-3-3 1-3z" fill="#070101"/>
<path transform="translate(418,536)" d="m0 0h6l8 7 8 8 4 5 2 1-1-15-2-1v-4l2-1h8l3 3-3 3-1 30-1 2-5-1-12-13-7-8-3-1 1 18 3 1-1 4h-11v-4l2-2v-27l-3-1 1-3z" fill="#090101"/>
<path transform="translate(494,536)" d="m0 0h20l6 3 3 5v6l-4 6-4 2h-11v11l3 1-1 4h-14l-1-4 3-1-1-27-2-1v-4z" fill="#110303"/>
<path transform="translate(468,536)" d="m0 0h15l4 4v7l-5-1-4-4h-7l-1 4v2l5 2 11 6 2 3v8l-2 4-8 4h-10l-8-3-2-9 1-2 4 1 5 6 7 1 2-1v-5l-14-8-3-3-1-8 3-5z" fill="#090101"/>
<path transform="translate(155,536)" d="m0 0h5l4 5 11 27 4 2v3l-2 1h-14l-1-4 1-4v-2h-11l-2 1v4l2 1-1 4h-11l-2-3 5-4 9-23z" fill="#0A0202"/>
<path transform="translate(699,536)" d="m0 0h10l3 1v4l-2 1-1 6v14l2 5 4 2 7-1 2-3v-23l-2-2v-3l3-1h7l3 2-1 3-2 1-1 21-2 7-5 4-4 1h-10l-7-3-3-4-1-5v-17l-2-5-1-4z" fill="#110303"/>
<path transform="translate(672,536)" d="m0 0h5l4 6 10 25 4 3-1 4h-14l-2-1 2-6-1-2-3-1h-10l-1 5 4 2-2 3h-11l-1-4 4-2 10-25z" fill="#070101"/>
<path transform="translate(301,536)" d="m0 0h31l3 6v5l-4 1-4-5h-5v24l3 3-1 4h-14l-2-3 3-3 1-26-6 1-4 5h-3v-8z" fill="#070101"/>
<path transform="translate(738,536)" d="m0 0h31l2 3 1 7-1 2-4-1-3-4-6-1 1 26 3 3v2l-2 1h-14l-1-4 3-2 1-26-6 1-4 5h-3l-1-3 2-8z" fill="#070101"/>
<path transform="translate(607,536)" d="m0 0h31l2 3 1 7-1 2-4-1-3-4-6-1 1 26 3 3v2l-2 1h-14l-1-4 3-2 1-26-6 1-4 5h-3l-1-3 2-8z" fill="#070101"/>
<path transform="translate(60,536)" d="m0 0h32l2 5v7h-4l-3-5-6-1v27l3 1-1 4h-14l-1-4 3-1v-27l-6 1-3 5h-5l2-10z" fill="#0C0202"/>
<path transform="translate(1112,451)" d="m0 0h7l2 2v12l-3 8-4 2-2 7-7 2-7-3-1-4 5-19 7-6z" fill="#fff"/>
<path transform="translate(1170,450)" d="m0 0h7l3 5-1 11-3 7-3 1-2 7-5 3-5-1-3-4 1-13 6-12z" fill="#fff"/>
<path transform="translate(125,536)" d="m0 0h11l2 1v4l-2 1-1 23-3 7-5 3h-10l-5-3-2-2v-7l4-3 5 2 1 7h4l1-2v-23l-3-4v-3z" fill="#0B0202"/>
<path transform="translate(789,541)" d="m0 0 6 1 5 6 2 6v10l-4 5-5 1-6-4-3-6-1-11 3-6z" fill="#fff"/>
<path transform="translate(540,541)" d="m0 0 6 1 5 6 2 5v11l-3 5-6 1-5-3-4-8v-13z" fill="#fff"/>
<path transform="translate(269,536)" d="m0 0h10l3 1v4l-2 1-1 6v21l3 1-1 4h-14l-1-4 3-1v-23l-2-5-1-4z" fill="#080101"/>
<path transform="translate(243,557)" d="m0 0 9 1 3 3-1 6-2 2h-9l-1-2v-9z" fill="#fff"/>
<path transform="translate(39,541)" d="m0 0h6l3 2 1 5-2 4-2 1h-7v-10z" fill="#fff"/>
<path transform="translate(580,541)" d="m0 0h6l3 3v6l-2 2-8 1v-11z" fill="#fff"/>
<path transform="translate(350,541)" d="m0 0h6l3 3v6l-5 3-5-1v-9z" fill="#fff"/>
<path transform="translate(505,541)" d="m0 0 7 1 2 3-1 6-3 2h-6v-11z" fill="#fff"/>
<path transform="translate(244,541)" d="m0 0 7 1 2 2v5l-4 3h-6l-1-1v-7z" fill="#fff"/>
<path transform="translate(156,549)" d="m0 0 2 1 2 5v4h-8l3-9z" fill="#fff"/>
<path transform="translate(672,549)" d="m0 0h2l3 10h-8l1-5z" fill="#fff"/>
<path transform="translate(391,549)" d="m0 0 3 3 2 7h-8l1-6z" fill="#fff"/>
</svg>
